<?xml version="1.0" standalone="no"?>
<!DOCTYPE svg PUBLIC "-//W3C//DTD SVG 20010904//EN"
 "http://www.w3.org/TR/2001/REC-SVG-20010904/DTD/svg10.dtd">
<svg version="1.0" xmlns="http://www.w3.org/2000/svg"
 width="300.000000pt" height="300.000000pt" viewBox="0 0 300.000000 300.000000"
 preserveAspectRatio="xMidYMid meet">
<metadata>
Created by potrace 1.10, written by Peter Selinger 2001-2011
</metadata>
<g transform="translate(0.000000,300.000000) scale(0.100000,-0.100000)"
fill="#000000" stroke="none">
<path d="M1215 2970 c-293 -52 -574 -206 -795 -436 -123 -128 -197 -234 -269
-386 -92 -193 -143 -392 -140 -543 l1 -60 9 45 c5 25 14 72 19 105 5 33 12 76
15 95 3 19 8 46 12 60 3 14 7 30 8 35 6 25 57 174 71 205 56 128 139 260 207
332 9 10 17 21 17 26 -1 13 164 173 210 205 25 17 47 33 50 36 9 11 124 87
171 114 64 36 247 105 343 127 71 17 138 29 265 46 59 8 47 14 -25 13 -38 0
-114 -9 -169 -19z"/>
<path d="M1605 2976 c28 -8 66 -15 85 -16 90 -1 380 -86 450 -130 8 -6 26 -15
38 -20 42 -18 156 -88 179 -109 12 -12 25 -21 28 -21 16 0 114 -93 108 -103
-3 -5 -2 -7 4 -4 10 7 112 -95 174 -173 77 -99 172 -271 213 -388 45 -125 55
-172 80 -362 3 -19 9 -53 15 -75 17 -66 5 157 -13 240 -49 231 -175 484 -329
660 -260 299 -637 493 -992 511 l-90 4 50 -14z"/>
<path d="M2069 2953 c-13 -16 -12 -17 4 -4 9 7 17 15 17 17 0 8 -8 3 -21 -13z"/>
<path d="M53 2945 c-17 -19 -16 -26 1 -19 15 6 30 34 18 34 -4 -1 -13 -7 -19
-15z"/>
<path d="M118 2890 c-39 -38 -69 -72 -67 -75 3 -2 38 29 79 70 41 41 71 75 67
75 -4 0 -39 -31 -79 -70z"/>
<path d="M291 2946 c-1 -11 -4 -16 -7 -13 -9 8 -214 -194 -214 -210 0 -7 -4
-13 -9 -13 -5 0 -12 -8 -15 -17 -4 -10 52 41 125 113 81 81 129 137 126 145
-4 9 -6 7 -6 -5z"/>
<path d="M302 2728 c-128 -128 -243 -246 -254 -263 -12 -16 96 87 240 230 144
143 262 261 262 263 1 14 -47 -31 -248 -230z"/>
<path d="M623 2927 c-23 -17 -44 -41 -47 -52 -3 -10 -8 -16 -12 -12 -4 4 -14
-2 -22 -14 -30 -43 -3 -26 63 41 38 39 67 70 65 70 -3 0 -24 -15 -47 -33z"/>
<path d="M688 2880 c-43 -43 -78 -83 -78 -90 0 -6 -4 -9 -8 -6 -10 6 -43 -30
-35 -38 4 -3 0 -6 -7 -6 -14 0 -92 -78 -119 -118 -8 -11 -18 -19 -23 -16 -4 3
-8 -3 -8 -13 0 -10 69 52 181 164 100 99 180 185 178 191 -2 6 -39 -25 -81
-68z"/>
<path d="M830 2902 c-54 -55 -41 -48 29 15 19 18 33 34 31 37 -3 2 -30 -21
-60 -52z"/>
<path d="M2148 2930 c-22 -22 -26 -30 -14 -30 9 0 16 7 16 15 0 8 6 15 14 15
8 0 16 7 20 15 8 22 -1 18 -36 -15z"/>
<path d="M2341 2894 c-35 -35 -61 -67 -57 -71 9 -9 130 112 125 125 -2 6 -33
-18 -68 -54z"/>
<path d="M2589 2900 c-35 -33 -61 -62 -58 -64 2 -2 33 25 69 60 36 35 62 64
58 64 -4 0 -35 -27 -69 -60z"/>
<path d="M2755 2948 c-29 -17 -215 -207 -215 -220 0 -6 -3 -9 -6 -5 -8 7 -46
-32 -42 -44 2 -5 68 56 148 136 80 80 143 145 140 145 -3 0 -14 -6 -25 -12z"/>
<path d="M220 2765 c-100 -102 -180 -188 -177 -192 8 -7 167 152 167 167 0 5
4 9 9 8 5 -2 43 32 85 75 43 42 73 77 69 77 -4 0 3 6 16 13 25 12 40 37 24 37
-5 0 -92 -83 -193 -185z"/>
<path d="M2245 2910 c-21 -22 -36 -42 -34 -45 3 -2 25 16 49 40 24 25 40 45
34 45 -5 0 -27 -18 -49 -40z"/>
<path d="M2435 2869 c-47 -46 -85 -88 -84 -94 0 -5 3 -4 6 3 2 6 10 12 16 12
17 1 163 148 154 156 -3 4 -45 -31 -92 -77z"/>
<path d="M2700 2784 c-91 -91 -154 -160 -140 -153 29 14 219 207 212 214 -3 3
2 5 11 5 10 0 17 7 17 15 0 8 4 15 10 15 9 0 70 58 70 66 0 16 -36 -17 -180
-162z"/>
<path d="M2787 2752 c-97 -97 -177 -180 -177 -184 0 -5 5 -8 10 -8 6 0 10 7
10 15 0 8 4 15 9 15 5 0 31 23 58 50 98 103 123 128 123 125 0 -2 21 19 48 47
26 27 60 63 77 78 16 16 27 31 24 34 -2 3 -84 -75 -182 -172z"/>
<path d="M509 2823 c-4 -12 -212 -226 -256 -264 -10 -9 -34 -33 -54 -55 -20
-21 -51 -53 -70 -70 -42 -38 -82 -85 -77 -89 9 -9 470 464 466 476 -4 11 -6
11 -9 2z"/>
<path d="M2470 2779 c-61 -66 -60 -69 2 -10 29 28 50 52 47 55 -2 2 -24 -18
-49 -45z"/>
<path d="M2806 2650 c-82 -83 -145 -150 -140 -150 6 0 74 64 152 143 122 123
152 157 140 157 -2 0 -70 -68 -152 -150z"/>
<path d="M2838 2569 c-65 -66 -118 -125 -118 -131 0 -7 50 37 111 97 101 101
136 142 127 150 -2 2 -56 -51 -120 -116z"/>
<path d="M391 2579 c-1 -9 -8 -19 -16 -23 -8 -3 -15 -11 -15 -18 0 -7 9 -4 21
9 12 11 19 27 16 34 -4 10 -6 9 -6 -2z"/>
<path d="M2860 2475 c-57 -57 -101 -107 -97 -111 9 -9 166 145 190 185 10 17
17 31 15 31 -2 0 -50 -47 -108 -105z"/>
<path d="M335 2523 c-4 -13 -11 -21 -15 -18 -9 5 -100 -91 -100 -106 0 -5 -4
-8 -9 -4 -5 3 -12 -4 -16 -15 -3 -11 -10 -19 -15 -17 -11 3 -140 -131 -140
-146 0 -7 70 58 156 144 98 98 154 162 151 170 -4 10 -8 7 -12 -8z"/>
<path d="M2896 2390 c-38 -39 -67 -72 -64 -75 4 -5 119 110 132 133 14 23 0
12 -68 -58z"/>
<path d="M1212 2383 c-42 -17 -53 -42 -57 -132 -2 -42 -4 -81 -4 -87 -1 -9
-56 -12 -188 -13 l-188 0 -22 -26 c-28 -32 -29 -62 -2 -95 19 -22 30 -25 93
-27 71 -2 71 -2 72 -30 1 -15 -3 -38 -7 -51 -5 -13 -5 -21 0 -18 5 4 9 -239 9
-579 l0 -584 23 -30 c13 -16 35 -34 49 -41 24 -10 948 -18 992 -8 42 10 95 92
84 132 -3 11 -1 27 5 37 5 10 5 20 1 23 -5 3 -5 31 -1 63 3 32 4 62 1 67 -10
18 -12 174 -3 200 6 15 7 26 1 26 -5 0 -7 21 -4 48 2 26 4 58 3 72 -1 19 -1
521 0 575 1 6 0 26 0 45 -1 19 -1 40 0 45 1 6 25 9 59 7 51 -3 63 0 89 22 42
35 46 65 13 99 l-26 28 -185 1 c-102 0 -187 4 -190 10 -3 5 -3 29 1 53 4 25 4
45 0 45 -4 0 -6 16 -4 35 4 51 -25 81 -89 94 -75 14 -486 10 -525 -6z m566
-29 c20 -14 22 -23 22 -120 l0 -104 198 0 c187 0 200 -1 217 -20 15 -16 17
-26 9 -48 -9 -26 -12 -27 -97 -30 l-87 -3 0 -640 c0 -420 -4 -647 -10 -660
-26 -48 -37 -49 -540 -49 -511 0 -513 0 -538 55 -9 19 -12 190 -12 660 l0 635
-79 0 c-59 0 -84 4 -95 16 -21 20 -20 43 1 66 15 16 35 18 215 18 l198 0 0
104 c0 97 2 106 22 120 33 24 543 24 576 0z"/>
<path d="M1320 2330 c-9 -6 -10 -10 -3 -10 6 0 15 5 18 10 8 12 4 12 -15 0z"/>
<path d="M1661 2324 c-7 -8 -11 -17 -9 -20 3 -2 13 5 23 16 10 11 14 20 9 20
-5 -1 -15 -8 -23 -16z"/>
<path d="M1740 2295 c-7 -9 -11 -18 -8 -20 3 -3 11 1 18 10 7 9 11 18 8 20 -3
3 -11 -1 -18 -10z"/>
<path d="M1280 2200 l0 -70 210 0 210 0 0 70 0 70 -210 0 -210 0 0 -70z m395
-1 l0 -44 -165 -2 c-211 -2 -208 -3 -208 44 0 21 4 40 8 43 5 3 88 5 187 4
l178 -1 0 -44z"/>
<path d="M1227 2243 c-4 -3 -7 -11 -7 -17 0 -6 5 -5 12 2 6 6 9 14 7 17 -3 3
-9 2 -12 -2z"/>
<path d="M1745 2180 c-3 -5 -1 -10 4 -10 6 0 11 5 11 10 0 6 -2 10 -4 10 -3 0
-8 -4 -11 -10z"/>
<path d="M1195 2100 c-3 -6 1 -7 9 -4 18 7 21 14 7 14 -6 0 -13 -4 -16 -10z"/>
<path d="M1770 2085 c-13 -14 -19 -25 -13 -25 12 0 48 38 41 45 -2 3 -15 -6
-28 -20z"/>
<path d="M1420 2080 c-14 -11 -20 -20 -14 -20 6 0 19 9 29 20 23 25 17 25 -15
0z"/>
<path d="M1900 2090 c-8 -5 -12 -12 -9 -15 4 -3 12 1 19 10 14 17 11 19 -10 5z"/>
<path d="M940 2070 c-9 -6 -10 -10 -3 -10 6 0 15 5 18 10 8 12 4 12 -15 0z"/>
<path d="M1057 2073 c-4 -3 -7 -11 -7 -17 0 -6 5 -5 12 2 6 6 9 14 7 17 -3 3
-9 2 -12 -2z"/>
<path d="M1170 2070 c-9 -6 -10 -10 -3 -10 6 0 15 5 18 10 8 12 4 12 -15 0z"/>
<path d="M1279 2063 c-13 -17 -13 -17 6 -3 11 8 22 16 24 17 2 2 0 3 -6 3 -6
0 -17 -8 -24 -17z"/>
<path d="M1985 2070 c-3 -5 1 -10 10 -10 9 0 13 5 10 10 -3 6 -8 10 -10 10 -2
0 -7 -4 -10 -10z"/>
<path d="M1488 2023 l-448 -3 0 -620 0 -620 450 0 450 0 0 625 c0 344 -1 624
-2 623 -2 -2 -204 -4 -450 -5z m431 -618 c-1 -544 -2 -595 -17 -598 -31 -7
-820 -2 -827 5 -6 5 -11 1131 -6 1180 1 4 192 7 426 7 l425 0 -1 -594z"/>
<path d="M1200 1935 l-24 -25 0 -388 c-1 -213 -5 -393 -10 -401 -6 -10 -6 -12
2 -7 9 5 12 -20 10 -95 -2 -98 -1 -104 24 -131 31 -34 58 -35 94 -5 l27 23 -1
503 -1 504 -22 23 c-29 31 -69 31 -99 -1z m82 -12 c17 -15 18 -44 18 -513 0
-372 -3 -499 -12 -508 -15 -15 -61 -15 -76 0 -9 9 -12 135 -12 507 0 446 2
496 17 513 20 22 41 23 65 1z"/>
<path d="M1250 1679 c0 -5 5 -7 10 -4 6 3 10 8 10 11 0 2 -4 4 -10 4 -5 0 -10
-5 -10 -11z"/>
<path d="M1246 1553 c-6 -14 -5 -15 5 -6 7 7 10 15 7 18 -3 3 -9 -2 -12 -12z"/>
<path d="M1463 1942 c-12 -9 -24 -33 -28 -52 -3 -19 -6 -246 -6 -504 l0 -469
27 -29 c35 -36 58 -35 95 2 l30 29 -3 501 -3 501 -25 19 c-31 24 -58 25 -87 2z
m73 -16 c18 -14 19 -32 21 -503 2 -536 2 -533 -56 -533 -50 0 -51 10 -51 530
0 467 1 481 20 500 24 24 39 25 66 6z"/>
<path d="M1500 1695 c-7 -9 -8 -15 -2 -15 5 0 12 7 16 15 3 8 4 15 2 15 -2 0
-9 -7 -16 -15z"/>
<path d="M1711 1936 c-21 -22 -22 -33 -26 -217 -5 -233 -5 -159 0 -507 3 -247
6 -297 19 -317 30 -46 91 -42 118 8 18 33 19 971 1 1009 -25 52 -76 63 -112
24z m81 -13 c17 -15 18 -44 18 -513 0 -372 -3 -499 -12 -508 -15 -15 -61 -15
-76 0 -9 9 -12 135 -12 507 0 446 2 496 17 513 20 22 41 23 65 1z"/>
<path d="M1760 1600 c-8 -5 -12 -12 -9 -15 4 -3 12 1 19 10 14 17 11 19 -10 5z"/>
<path d="M1750 1119 c0 -5 5 -7 10 -4 6 3 10 8 10 11 0 2 -4 4 -10 4 -5 0 -10
-5 -10 -11z"/>
<path d="M1985 1949 c-4 -6 -5 -12 -2 -15 2 -3 7 2 10 11 7 17 1 20 -8 4z"/>
<path d="M1977 1699 c-4 -16 -3 -18 9 -8 16 13 19 29 5 29 -5 0 -11 -9 -14
-21z"/>
<path d="M990 1650 c-8 -5 -12 -12 -9 -15 4 -3 12 1 19 10 14 17 11 19 -10 5z"/>
<path d="M995 1430 c-3 -5 -1 -10 4 -10 6 0 11 5 11 10 0 6 -2 10 -4 10 -3 0
-8 -4 -11 -10z"/>
<path d="M1990 1360 c-8 -5 -12 -12 -9 -15 4 -3 12 1 19 10 14 17 11 19 -10 5z"/>
<path d="M980 1168 c-12 -22 -12 -22 6 -6 10 10 15 20 12 24 -4 3 -12 -5 -18
-18z"/>
<path d="M1980 1125 c-7 -9 -11 -17 -9 -20 3 -2 10 5 17 15 14 24 10 26 -8 5z"/>
<path d="M1959 753 c-18 -20 -27 -32 -18 -25 9 6 20 8 24 4 5 -4 5 -1 1 6 -4
6 -3 12 3 12 6 0 15 9 21 20 15 29 8 25 -31 -17z"/>
<path d="M1364 736 c-10 -8 -16 -17 -13 -20 3 -3 14 3 24 14 21 23 17 26 -11
6z"/>
<path d="M1585 730 c-10 -11 -16 -20 -13 -20 3 0 15 9 28 20 13 11 19 20 13
20 -5 0 -18 -9 -28 -20z"/>
<path d="M1715 739 c-11 -17 1 -21 15 -4 8 9 8 15 2 15 -6 0 -14 -5 -17 -11z"/>
<path d="M1816 731 c-4 -5 1 -8 9 -7 21 3 31 16 12 16 -9 0 -18 -4 -21 -9z"/>
<path d="M2914 2285 c-23 -24 -44 -41 -48 -38 -3 4 -6 -2 -6 -12 0 -15 8 -11
41 20 35 35 66 75 57 75 -2 0 -22 -20 -44 -45z"/>
<path d="M2925 2185 c-19 -19 -35 -40 -35 -47 0 -7 18 7 40 31 22 25 40 46 40
48 0 9 -14 -1 -45 -32z"/>
<path d="M109 2183 l-24 -28 30 25 c17 14 32 26 34 28 2 1 0 2 -6 2 -5 0 -20
-12 -34 -27z"/>
<path d="M60 2129 c-17 -30 -6 -34 14 -4 9 14 12 25 7 25 -6 0 -15 -9 -21 -21z"/>
<path d="M2945 2090 c-16 -17 -16 -20 -3 -15 9 4 19 13 22 21 7 19 2 18 -19
-6z"/>
<path d="M15 1360 c7 -171 50 -332 139 -515 68 -139 134 -237 233 -345 145
-159 273 -255 455 -345 185 -90 339 -132 508 -140 l95 -5 -155 30 c-85 16
-200 43 -255 61 -99 32 -277 113 -283 130 -2 5 -8 9 -13 9 -12 0 -82 45 -139
90 -90 71 -191 170 -249 245 -17 22 -41 53 -54 69 -57 75 -158 269 -192 371
-35 103 -48 161 -66 295 -4 36 -13 83 -18 105 -9 33 -10 23 -6 -55z"/>
<path d="M2973 1380 c-7 -41 -17 -106 -23 -145 -12 -77 -15 -88 -60 -224 -88
-264 -250 -489 -493 -684 -32 -26 -62 -47 -68 -47 -6 0 -27 -13 -47 -29 -55
-44 -245 -130 -352 -160 -25 -7 -56 -17 -69 -23 -14 -5 -48 -11 -75 -14 -28
-3 -94 -13 -146 -22 l-95 -17 55 -3 c169 -11 490 88 685 210 189 120 374 305
493 493 121 194 218 504 210 675 l-3 65 -12 -75z"/>
<path d="M47 943 c-4 -3 -7 -11 -7 -17 0 -6 5 -5 12 2 6 6 9 14 7 17 -3 3 -9
2 -12 -2z"/>
<path d="M2917 892 c-15 -15 -27 -34 -27 -42 0 -7 3 -10 8 -6 4 4 7 13 7 19 0
7 6 12 12 12 7 0 20 10 28 23 23 31 4 28 -28 -6z"/>
<path d="M73 857 c-30 -33 -37 -48 -19 -41 9 3 16 12 16 20 0 7 8 17 17 23 10
5 15 12 12 15 -3 3 -15 -4 -26 -17z"/>
<path d="M2832 686 c-73 -73 -132 -137 -132 -142 0 -5 27 19 59 53 33 34 62
59 65 57 3 -2 4 -2 2 2 -2 3 30 38 72 79 42 41 74 77 71 79 -3 3 -64 -55 -137
-128z"/>
<path d="M91 754 c-25 -24 -42 -46 -40 -49 3 -2 25 15 49 40 24 25 42 46 39
49 -2 2 -24 -16 -48 -40z"/>
<path d="M103 654 c-54 -56 -74 -84 -60 -84 2 0 36 34 76 75 40 41 67 75 60
75 -8 -1 -42 -30 -76 -66z"/>
<path d="M2857 592 c-53 -54 -97 -102 -97 -107 0 -12 177 163 191 188 5 9 8
17 7 17 -2 0 -47 -44 -101 -98z"/>
<path d="M139 573 c-86 -89 -113 -122 -89 -108 26 14 129 119 130 131 0 7 8
14 18 16 10 3 19 13 19 22 0 9 -1 16 -1 16 -1 0 -35 -35 -77 -77z"/>
<path d="M159 472 c-97 -98 -127 -132 -116 -132 2 0 56 54 121 120 64 66 113
120 109 120 -4 0 -56 -49 -114 -108z"/>
<path d="M2686 309 c-143 -142 -256 -262 -252 -266 7 -7 500 479 517 510 5 9
6 17 2 17 -4 -1 -125 -118 -267 -261z"/>
<path d="M320 510 c0 -7 -3 -11 -6 -7 -8 8 -264 -251 -264 -267 0 -6 64 53
142 131 78 78 139 145 135 149 -4 4 -7 1 -7 -6z"/>
<path d="M2678 412 c-36 -37 -109 -109 -161 -160 -52 -50 -93 -92 -91 -92 1 0
-25 -28 -59 -61 -34 -34 -53 -57 -42 -51 26 14 430 420 424 426 -2 2 -34 -26
-71 -62z"/>
<path d="M207 291 c-92 -92 -167 -174 -167 -182 0 -7 25 14 55 46 30 33 55 63
55 68 0 4 5 5 10 2 6 -3 10 1 10 10 0 9 4 14 9 10 5 -3 12 4 16 15 3 11 10 20
14 20 12 0 76 64 73 72 -1 5 3 8 9 8 14 0 44 30 44 44 0 6 6 11 14 11 7 0 17
10 22 23 5 12 7 22 6 22 -2 0 -78 -76 -170 -169z"/>
<path d="M2740 245 c-113 -113 -199 -205 -192 -205 7 0 15 7 18 15 4 8 9 13
13 10 8 -4 184 169 182 179 0 3 2 6 7 6 12 1 172 164 172 176 0 7 6 15 13 17
6 3 7 6 2 6 -6 1 -102 -91 -215 -204z"/>
<path d="M255 220 c-93 -93 -167 -172 -164 -174 3 -3 25 15 49 40 25 24 76 75
114 112 100 98 106 105 106 116 0 5 3 7 6 3 8 -7 42 26 36 36 -2 5 5 11 17 14
20 5 30 23 14 23 -5 0 -84 -76 -178 -170z"/>
<path d="M2913 296 c-59 -59 -73 -89 -17 -35 32 31 80 89 72 89 -2 0 -27 -25
-55 -54z"/>
<path d="M345 188 c-82 -83 -141 -146 -130 -140 27 14 290 280 284 286 -3 3
-72 -63 -154 -146z"/>
<path d="M434 165 c-64 -64 -114 -119 -110 -122 3 -4 61 48 129 115 67 67 117
122 110 122 -6 0 -64 -52 -129 -115z"/>
<path d="M2313 167 c-62 -62 -113 -116 -113 -121 0 -5 33 24 74 65 41 41 92
92 115 113 34 33 50 56 39 56 -2 0 -54 -51 -115 -113z"/>
<path d="M525 140 c-55 -55 -94 -100 -87 -100 17 0 154 135 145 143 -3 4 0 7
8 7 14 0 44 38 37 46 -2 2 -49 -42 -103 -96z"/>
<path d="M2750 133 c-52 -53 -86 -91 -75 -85 26 14 180 170 174 176 -2 3 -47
-38 -99 -91z"/>
<path d="M2907 176 c-25 -24 -43 -46 -40 -50 3 -3 2 -6 -4 -6 -10 0 -83 -67
-83 -76 0 -13 43 22 114 95 83 85 92 112 13 37z"/>
<path d="M621 115 c-35 -36 -62 -67 -59 -70 2 -3 35 27 72 65 38 39 64 70 59
70 -5 0 -37 -29 -72 -65z"/>
<path d="M754 126 c-7 -6 -26 -23 -43 -38 -17 -15 -28 -29 -23 -32 9 -5 89 71
81 78 -2 2 -9 -1 -15 -8z"/>
<path d="M2921 75 c-17 -20 -31 -38 -31 -41 0 -9 42 24 57 46 25 36 8 33 -26
-5z"/>
<path d="M811 75 c-13 -14 -21 -28 -18 -31 5 -6 57 39 57 50 0 13 -16 5 -39
-19z"/>
<path d="M2102 77 c-27 -29 -28 -41 -2 -27 11 6 20 17 20 25 0 7 6 16 13 18 6
3 7 6 1 6 -6 1 -20 -9 -32 -22z"/>
<path d="M916 61 c-4 -7 -5 -15 -2 -18 9 -9 19 4 14 18 -4 11 -6 11 -12 0z"/>
</g>
</svg>
